<svg xmlns="http://www.w3.org/2000/svg" width="80" height="80" viewBox="0 0 80 80">
    <path id="Path_44" data-name="Path 44" d="M0,69.685A10.315,10.315,0,0,0,10.315,80H69.684A10.315,10.315,0,0,0,80,69.685V10.316A10.315,10.315,0,0,0,69.685,0H10.316A10.315,10.315,0,0,0,0,10.315V69.684Z" fill="#563d7c"/>
    <path id="Path_45" data-name="Path 45" d="M82.726,70.106V58.777H92.7a15.512,15.512,0,0,1,2.747.237,6.858,6.858,0,0,1,2.341.848,4.522,4.522,0,0,1,1.628,1.7,5.632,5.632,0,0,1,.611,2.781,5.124,5.124,0,0,1-1.832,4.41,7.656,7.656,0,0,1-4.681,1.357H82.726ZM72.075,50.5V98.938H95.548a24.764,24.764,0,0,0,6.343-.814,16.965,16.965,0,0,0,5.495-2.51,12.364,12.364,0,0,0,3.833-4.376,14.806,14.806,0,0,0-.78-14.111,11.643,11.643,0,0,0-6.683-4.512,12.073,12.073,0,0,0,4.919-4,10.611,10.611,0,0,0,1.662-6.106,12.993,12.993,0,0,0-1.119-5.7,9.309,9.309,0,0,0-3.155-3.7,13.615,13.615,0,0,0-4.884-2,30.155,30.155,0,0,0-6.309-.611ZM82.726,90.661v-13.3h11.6a8.974,8.974,0,0,1,5.563,1.594q2.1,1.594,2.1,5.325a6.657,6.657,0,0,1-.645,3.121,5.119,5.119,0,0,1-1.73,1.933,7.326,7.326,0,0,1-2.51,1.018,14.242,14.242,0,0,1-2.985.3h-11.4Z" transform="translate(-49.552 -34.719)" fill="#fff"/>
</svg>