<svg xmlns="http://www.w3.org/2000/svg" width="57.748" height="80" viewBox="0 0 57.748 80">
    <g id="Group_10" data-name="Group 10" transform="translate(-4.447 0)">
        <path id="Path_38" data-name="Path 38" d="M28.877,22.03l-8,7.448L13.445,14.495l3.844-8.617c1-1.749,2.559-1.729,3.534,0Z" transform="translate(13.489 6.855)" fill="#ffa000"/>
        <path id="Path_39" data-name="Path 39" d="M26.934,8.543l7.428,14.982L4.447,51.354Z" transform="translate(0 12.807)" fill="#f57f17"/>
        <path id="Path_40" data-name="Path 40" d="M51.121,7.476c1.43-1.375,2.909-.9,3.286,1.042L62.2,53.765,36.384,69.26a12.2,12.2,0,0,1-3.3.715,11.2,11.2,0,0,1-3.016-.75L4.447,54.135Z" transform="translate(0 10.025)" fill="#ffca28"/>
        <path id="Path_41" data-name="Path 41" d="M26.933,21.35,4.448,64.161,14.462,1.594c.37-1.949,1.48-2.137,2.469-.417Z" transform="translate(0.001 0)" fill="#ffa000"/>
    </g>
</svg>