<svg xmlns="http://www.w3.org/2000/svg" width="80.002" height="80" viewBox="0 0 80.002 80">
    <path id="Path_46" data-name="Path 46" d="M81.047,38.994,46.118,4.067a5.152,5.152,0,0,0-7.286,0l-7.252,7.254,9.2,9.2a6.119,6.119,0,0,1,7.748,7.8L57.4,37.189a6.125,6.125,0,1,1-3.671,3.457l-8.271-8.27V54.14a6.121,6.121,0,1,1-5.04-.178V32a6.133,6.133,0,0,1-3.328-8.04l-9.069-9.071L4.064,38.832a5.154,5.154,0,0,0,0,7.288L38.995,81.049a5.152,5.152,0,0,0,7.286,0L81.047,46.282a5.154,5.154,0,0,0,0-7.288Z" transform="translate(-2.555 -2.558)" fill="#f05133"/>
</svg>