<svg xmlns="http://www.w3.org/2000/svg" width="82.022" height="80" viewBox="0 0 82.022 80">
    <path id="iconmonstr-github-1" d="M41.011,0A41.016,41.016,0,0,0,28.048,79.927c2.047.379,2.71-.892,2.71-1.972V70.321C19.35,72.8,16.975,65.481,16.975,65.481c-1.866-4.74-4.556-6-4.556-6-3.722-2.546.284-2.491.284-2.491,4.118.287,6.285,4.228,6.285,4.228,3.657,6.268,9.593,4.457,11.934,3.407a8.7,8.7,0,0,1,2.6-5.482c-9.108-1.042-18.684-4.559-18.684-20.27a15.873,15.873,0,0,1,4.224-11.008c-.424-1.036-1.828-5.208.4-10.854,0,0,3.445-1.1,11.282,4.2a38.872,38.872,0,0,1,20.536,0c7.83-5.3,11.268-4.2,11.268-4.2,2.232,5.649.827,9.822.4,10.854a15.83,15.83,0,0,1,4.221,11.008c0,15.752-9.593,19.221-18.725,20.236,1.47,1.271,2.813,3.766,2.813,7.594V77.955c0,1.09.656,2.372,2.737,1.969A41.019,41.019,0,0,0,41.011,0Z"/>
</svg>