<svg xmlns="http://www.w3.org/2000/svg" xmlns:xlink="http://www.w3.org/1999/xlink" width="972" height="546.483" viewBox="0 0 972 546.483">
  <defs>
    <clipPath id="clip-workshops-1366">
      <rect width="972" height="546.483"/>
    </clipPath>
  </defs>
  <g id="workshops-1366" clip-path="url(#clip-workshops-1366)">
    <rect width="972" height="546.483" fill="#fff"/>
    <g id="Group_42" data-name="Group 42">
      <rect id="Rectangle_1" data-name="Rectangle 1" width="972" height="35.578" fill="#f6f6f6"/>
      <path id="Path_20" data-name="Path 20" d="M0,0H35.578V546.483H0Z" fill="#343333"/>
      <rect id="Rectangle_34" data-name="Rectangle 34" width="35.578" height="35.578" transform="translate(0 71.157)" fill="#f6f6f6"/>
      <path id="Path_1" data-name="Path 1" d="M0,64.813A.813.813,0,0,1,.813,64h9.759a.813.813,0,0,1,0,1.626H.813A.813.813,0,0,1,0,64.813Zm0,4.066a.813.813,0,0,1,.813-.813h9.759a.813.813,0,0,1,0,1.626H.813A.813.813,0,0,1,0,68.879Zm10.572,4.879H.813a.813.813,0,0,1,0-1.626h9.759a.813.813,0,0,1,0,1.626Z" transform="translate(12.097 -51.192)" fill="#f6f6f6"/>
      <path id="Path_2" data-name="Path 2" d="M4.981,5.693A2.846,2.846,0,1,0,2.135,2.846,2.846,2.846,0,0,0,4.981,5.693ZM6.109,6.76H3.854A3.854,3.854,0,0,0,0,10.614a.771.771,0,0,0,.771.771H9.192a.769.769,0,0,0,.77-.771A3.854,3.854,0,0,0,6.109,6.76Z" transform="translate(12.808 47.675)" fill="#f6f6f6"/>
      <path id="Path_3" data-name="Path 3" d="M15.836,34.683,8.651,32.111a1.6,1.6,0,0,0-1.078,0L.408,34.683a.626.626,0,0,0,0,1.174l1.525.547a3.514,3.514,0,0,0-.624,1.371.814.814,0,0,0-.5.748.8.8,0,0,0,.3.619L.486,42.929a.407.407,0,0,0,.4.474h1.48a.407.407,0,0,0,.4-.473l-.631-3.787a.835.835,0,0,0,.3-.619.8.8,0,0,0-.323-.633,2.7,2.7,0,0,1,.634-1.2l4.844,1.734a1.6,1.6,0,0,0,1.078,0l7.185-2.572a.622.622,0,0,0,.408-.587A.613.613,0,0,0,15.836,34.683ZM8.923,39.194a2.183,2.183,0,0,1-.79.142,2.409,2.409,0,0,1-.813-.141l-3.69-1.32L3.253,41.5c0,1.05,2.163,1.9,4.88,1.9,2.671,0,4.88-.849,4.88-1.9l-.376-3.632Z" transform="translate(9.962 51.236)" fill="#343333"/>
      <path id="Path_4" data-name="Path 4" d="M13.164,0H4.625A1.086,1.086,0,0,0,3.558,1.1V2.135a2.685,2.685,0,0,1,1.4.4V1.423h7.827v6.4H11.365V6.76a.356.356,0,0,0-.356-.356H8.875a.356.356,0,0,0-.356.356V7.827H6.389A3.565,3.565,0,0,1,7.517,9.25h5.646a1.086,1.086,0,0,0,1.068-1.1V1.1A1.086,1.086,0,0,0,13.164,0ZM3.558,7.116a2.135,2.135,0,0,0,0-4.269,2.135,2.135,0,0,0,0,4.269Zm.712.712H2.846A2.846,2.846,0,0,0,0,10.674a.712.712,0,0,0,.712.712H6.4a.712.712,0,0,0,.712-.712A2.846,2.846,0,0,0,4.269,7.827Z" transform="translate(10.673 118.832)" fill="#f6f6f6"/>
      <path id="Path_6" data-name="Path 6" d="M13.164,6.4h-.356V4.73a1.851,1.851,0,0,0-1.593-1.874A1.781,1.781,0,0,0,9.25,4.625V6.4H8.895A1.07,1.07,0,0,0,7.827,7.471v2.846a1.07,1.07,0,0,0,1.067,1.067h4.269a1.07,1.07,0,0,0,1.067-1.067V7.471A1.07,1.07,0,0,0,13.164,6.4Zm-2.135,3.2a.712.712,0,1,1,.712-.712A.713.713,0,0,1,11.029,9.606Zm.712-3.2H10.318V4.625a.712.712,0,0,1,1.423,0Zm-6.76-.712A2.846,2.846,0,1,0,2.135,2.846,2.846,2.846,0,0,0,4.981,5.693ZM7.116,7.471a1.755,1.755,0,0,1,.1-.549,3.847,3.847,0,0,0-1.1-.162H3.854A3.856,3.856,0,0,0,0,10.616a.77.77,0,0,0,.771.769H7.479a1.772,1.772,0,0,1-.364-1.067Z" transform="translate(10.673 154.41)" fill="#f6f6f6"/>
      <path id="Path_7" data-name="Path 7" d="M4.066,41.759H2.44a.813.813,0,0,1-.813-.813V34.44a.813.813,0,0,1,.813-.813H4.066a.813.813,0,0,0,0-1.626H2.44A2.44,2.44,0,0,0,0,34.44v6.506a2.44,2.44,0,0,0,2.44,2.44H4.066a.813.813,0,0,0,0-1.626Zm8.707-4.64L9.52,33.865a.813.813,0,1,0-1.15,1.15l1.867,1.864H4.879a.813.813,0,0,0,0,1.626h5.357L8.372,40.371a.813.813,0,0,0,1.15,1.15l3.253-3.253A.814.814,0,0,0,12.773,37.118Z" transform="translate(11.385 157.988)" fill="#f6f6f6"/>
      <text id="Contact" transform="translate(886.612 20.674)" fill="#343333" font-size="9" font-family="SegoeUI, Segoe UI"><tspan x="0" y="0">Contact</tspan></text>
      <text id="Enrolled_Workshops" data-name="Enrolled Workshops" transform="translate(82 94.157)" fill="#343333" font-size="21" font-family="SegoeUI-Bold, Segoe UI" font-weight="700"><tspan x="0" y="0">Enrolled Workshops</tspan></text>
      <text id="Recent_Completed_Workshops" data-name="Recent Completed Workshops" transform="translate(81.83 417.208)" fill="#343333" font-size="21" font-family="SegoeUI-Bold, Segoe UI" font-weight="700"><tspan x="0" y="0">Recent Completed Workshops</tspan></text>
      <line id="Line_9" data-name="Line 9" x2="843.918" transform="translate(82.186 108.158)" fill="none" stroke="#707070" stroke-width="1"/>
      <line id="Line_12" data-name="Line 12" x2="843.918" transform="translate(82.186 431.209)" fill="none" stroke="#707070" stroke-width="1"/>
      <g id="Group_14" data-name="Group 14" transform="translate(297.435 124.524)">
        <rect id="Rectangle_36" data-name="Rectangle 36" width="197.816" height="234.105" fill="#fff"/>
        <text id="Ethical_Hacking_Master_Class_-_7_Days_Workshop" data-name="Ethical Hacking Master Class - 7 Days Workshop" transform="translate(7.471 142.313)" fill="#343333" font-size="11" font-family="SegoeUI-Semibold, Segoe UI" font-weight="600"><tspan x="0" y="12">Ethical Hacking Master Class - 7 </tspan><tspan x="0" y="27">Days Workshop</tspan></text>
        <text id="Amit_Parekh" data-name="Amit Parekh" transform="translate(6.76 184.045)" fill="#343333" font-size="10" font-family="SegoeUI, Segoe UI"><tspan x="0" y="0">Amit Parekh</tspan></text>
        <text id="_4.8_5_14_336_" data-name="🌟4.8/5 (14,336)" transform="translate(79.34 184.045)" fill="#343333" font-size="10" font-family="SegoeUIEmoji, Segoe UI Emoji"><tspan x="0" y="0">🌟</tspan><tspan y="0" font-family="SegoeUI, Segoe UI">4.8/5 (14,336)</tspan></text>
        <line id="Line_10" data-name="Line 10" y2="13.52" transform="translate(69.734 175.401)" fill="none" stroke="#343333" stroke-width="1"/>
        <line id="Line_11" data-name="Line 11" x2="182.873" transform="translate(7.116 195.681)" fill="none" stroke="#343333" stroke-width="1"/>
        <text id="Continue_Learning" data-name="Continue Learning" transform="translate(6.76 216.354)" fill="#343333" font-size="11" font-family="SegoeUI, Segoe UI"><tspan x="0" y="0">Continue Learning</tspan></text>
        <path id="Path_45" data-name="Path 45" d="M5.693,0a5.693,5.693,0,1,0,5.693,5.693A5.692,5.692,0,0,0,5.693,0ZM9.041,6.2,6.749,8.488A.711.711,0,0,1,5.743,7.481L6.822,6.4H2.846a.712.712,0,1,1,0-1.423H6.822l-1.1-1.1A.711.711,0,0,1,6.73,2.877L9.023,5.169a.744.744,0,0,1,.227.523A.717.717,0,0,1,9.041,6.2Z" transform="translate(178.603 208.489)" fill="#5600e8"/>
        <g id="Group_36" data-name="Group 36">
          <rect id="Rectangle_43" data-name="Rectangle 43" width="197.816" height="131.64" fill="#c5c5c5"/>
          <path id="Polygon_14" data-name="Polygon 14" d="M53.012,0l53.012,61.906H0Z" transform="translate(16.366 52.656)" fill="#fff"/>
          <path id="Polygon_15" data-name="Polygon 15" d="M66.887,0l66.887,78.272H0Z" transform="translate(49.098 36.29)" fill="#fff"/>
          <circle id="Ellipse_6" data-name="Ellipse 6" cx="11.741" cy="11.741" r="11.741" transform="translate(22.059 19.212)" fill="#fff"/>
        </g>
        <g id="Group_37" data-name="Group 37" transform="translate(0 0)">
          <path id="Intersection_1" data-name="Intersection 1" d="M0,64.752V36.719L40.382,0h31.58L.12,64.752Z" fill="#ca34ac"/>
          <text id="POPULAR" transform="translate(27.328 29.122) rotate(-42)" fill="#fff" font-size="8" font-family="SegoeUI, Segoe UI"><tspan x="-17.217" y="0">POPULAR</tspan></text>
        </g>
      </g>
      <g id="Group_40" data-name="Group 40" transform="translate(510.193 124.524)">
        <rect id="Rectangle_36-2" data-name="Rectangle 36" width="197.816" height="234.105" transform="translate(0)" fill="#fff"/>
        <text id="_5_Days_Web_Development_Bootcamp_with_certificate" data-name="5 Days Web Development Bootcamp with certificate" transform="translate(7.471 142.313)" fill="#343333" font-size="11" font-family="SegoeUI-Semibold, Segoe UI" font-weight="600"><tspan x="0" y="12">5 Days Web Development </tspan><tspan x="0" y="27">Bootcamp with certificate</tspan></text>
        <text id="Amit_Parekh-2" data-name="Amit Parekh" transform="translate(6.76 184.045)" fill="#343333" font-size="10" font-family="SegoeUI, Segoe UI"><tspan x="0" y="0">Amit Parekh</tspan></text>
        <text id="_4.6_5_22_554_" data-name="🌟4.6/5 (22,554)" transform="translate(79.34 184.045)" fill="#343333" font-size="10" font-family="SegoeUIEmoji, Segoe UI Emoji"><tspan x="0" y="0">🌟</tspan><tspan y="0" font-family="SegoeUI, Segoe UI">4.6/5 (22,554)</tspan></text>
        <line id="Line_10-2" data-name="Line 10" y2="13.52" transform="translate(69.734 175.401)" fill="none" stroke="#343333" stroke-width="1"/>
        <line id="Line_11-2" data-name="Line 11" x2="182.873" transform="translate(7.116 195.681)" fill="none" stroke="#343333" stroke-width="1"/>
        <text id="Continue_Learning-2" data-name="Continue Learning" transform="translate(6.76 216.354)" fill="#343333" font-size="11" font-family="SegoeUI, Segoe UI"><tspan x="0" y="0">Continue Learning</tspan></text>
        <path id="Path_45-2" data-name="Path 45" d="M5.693,0a5.693,5.693,0,1,0,5.693,5.693A5.692,5.692,0,0,0,5.693,0ZM9.041,6.2,6.749,8.488A.711.711,0,0,1,5.743,7.481L6.822,6.4H2.846a.712.712,0,1,1,0-1.423H6.822l-1.1-1.1A.711.711,0,0,1,6.73,2.877L9.023,5.169a.744.744,0,0,1,.227.523A.717.717,0,0,1,9.041,6.2Z" transform="translate(178.603 208.489)" fill="#5600e8"/>
        <g id="Group_36-2" data-name="Group 36" transform="translate(0)">
          <rect id="Rectangle_43-2" data-name="Rectangle 43" width="197.816" height="131.64" fill="#c5c5c5"/>
          <path id="Polygon_14-2" data-name="Polygon 14" d="M53.012,0l53.012,61.906H0Z" transform="translate(16.366 52.656)" fill="#fff"/>
          <path id="Polygon_15-2" data-name="Polygon 15" d="M66.887,0l66.887,78.272H0Z" transform="translate(49.098 36.29)" fill="#fff"/>
          <circle id="Ellipse_6-2" data-name="Ellipse 6" cx="11.741" cy="11.741" r="11.741" transform="translate(22.059 19.212)" fill="#fff"/>
        </g>
      </g>
      <g id="Group_18" data-name="Group 18" transform="translate(81.83 447.575)">
        <g id="Group_38" data-name="Group 38" transform="translate(0 0)">
          <rect id="Rectangle_43-3" data-name="Rectangle 43" width="197.816" height="98.908" fill="#c5c5c5"/>
          <path id="Polygon_14-3" data-name="Polygon 14" d="M41.271,0,82.542,46.252H0Z" transform="translate(16.366 52.656)" fill="#fff"/>
          <path id="Path_157" data-name="Path 157" d="M59.873,0l59.873,62.618H0Z" transform="translate(57.637 36.29)" fill="#fff"/>
          <circle id="Ellipse_6-3" data-name="Ellipse 6" cx="11.741" cy="11.741" r="11.741" transform="translate(22.059 19.212)" fill="#fff"/>
        </g>
        <g id="Group_27" data-name="Group 27" transform="translate(0 0)">
          <path id="Intersection_1-2" data-name="Intersection 1" d="M0,64.752V36.719L40.382,0h31.58L.12,64.752Z" fill="#cacf41"/>
          <text id="BEST_SELLER" data-name="BEST SELLER" transform="translate(26.813 29.586) rotate(-42)" fill="#fff" font-size="8" font-family="SegoeUI, Segoe UI"><tspan x="-21.963" y="0">BEST SELLER</tspan></text>
        </g>
      </g>
      <rect id="Rectangle_37" data-name="Rectangle 37" width="165.083" height="184.296" transform="translate(98.908 180.026)" fill="rgba(52,51,51,0.28)"/>
      <g id="Group_13" data-name="Group 13" transform="translate(77.561 118.832)">
        <rect id="Rectangle_36-3" data-name="Rectangle 36" width="207.777" height="245.49" transform="translate(0)" fill="#fff"/>
        <text id="The_Complete_Digital_Marketing_Workshop_-_12_courses_in_1" data-name="The Complete Digital Marketing Workshop - 12 courses in 1" transform="translate(8.006 149.234)" fill="#343333" font-size="11" font-family="SegoeUI-Semibold, Segoe UI" font-weight="600"><tspan x="0" y="12">The Complete Digital Marketing </tspan><tspan x="0" y="27">Workshop - 12 courses in 1</tspan></text>
        <text id="Amit_Parekh-3" data-name="Amit Parekh" transform="translate(7.26 192.558)" fill="#343333" font-size="10" font-family="SegoeUI, Segoe UI"><tspan x="0" y="0">Amit Parekh</tspan></text>
        <text id="_4.5_5_12_356_" data-name="🌟4.5/5 (12,356)" transform="translate(83.369 192.558)" fill="#343333" font-size="10" font-family="SegoeUIEmoji, Segoe UI Emoji"><tspan x="0" y="0">🌟</tspan><tspan y="0" font-family="SegoeUI, Segoe UI">4.5/5 (12,356)</tspan></text>
        <line id="Line_10-3" data-name="Line 10" y2="14.177" transform="translate(73.296 183.931)" fill="none" stroke="#343333" stroke-width="1"/>
        <line id="Line_11-3" data-name="Line 11" x2="191.411" transform="translate(7.827 204.931)" fill="none" stroke="#343333" stroke-width="1"/>
        <text id="Continue_Learning-3" data-name="Continue Learning" transform="translate(7.26 226.39)" fill="#343333" font-size="11" font-family="SegoeUI, Segoe UI"><tspan x="0" y="0">Continue Learning</tspan></text>
        <path id="Path_44" data-name="Path 44" d="M5.693,0a5.693,5.693,0,1,0,5.693,5.693A5.692,5.692,0,0,0,5.693,0ZM9.041,6.2,6.749,8.488A.711.711,0,0,1,5.743,7.481L6.822,6.4H2.846a.712.712,0,1,1,0-1.423H6.822l-1.1-1.1A.711.711,0,0,1,6.73,2.877L9.023,5.169a.744.744,0,0,1,.227.523A.717.717,0,0,1,9.041,6.2Z" transform="translate(187.854 218.451)" fill="#5600e8"/>
        <g id="Group_34" data-name="Group 34">
          <rect id="Rectangle_43-4" data-name="Rectangle 43" width="207.066" height="138.044" fill="#c5c5c5"/>
          <path id="Polygon_14-4" data-name="Polygon 14" d="M53.012,0l53.012,61.906H0Z" transform="translate(16.366 59.06)" fill="#fff"/>
          <path id="Polygon_15-3" data-name="Polygon 15" d="M66.887,0l66.887,78.272H0Z" transform="translate(58.348 42.694)" fill="#fff"/>
          <circle id="Ellipse_6-4" data-name="Ellipse 6" cx="11.741" cy="11.741" r="11.741" transform="translate(22.059 19.212)" fill="#fff"/>
        </g>
      </g>
      <g id="Group_16" data-name="Group 16" transform="translate(863.13 78.272)">
        <rect id="Rectangle_38" data-name="Rectangle 38" width="62.618" height="21.347" fill="#f6f6f6"/>
        <text id="Show_all" data-name="Show all" transform="translate(27.808 13.269)" fill="#343333" font-size="8" font-family="SegoeUI, Segoe UI"><tspan x="-14.691" y="0">Show all</tspan></text>
      </g>
      <g id="Group_20" data-name="Group 20" transform="translate(863.13 401.324)">
        <rect id="Rectangle_38-2" data-name="Rectangle 38" width="62.618" height="21.347" fill="#f6f6f6"/>
        <text id="Show_all-2" data-name="Show all" transform="translate(27.808 13.269)" fill="#343333" font-size="8" font-family="SegoeUI, Segoe UI"><tspan x="-14.691" y="0">Show all</tspan></text>
      </g>
      <text id="WebTape_Grow" data-name="WebTape | Grow" transform="translate(82 24.404)" fill="#343333" font-size="17" font-family="SegoeUI-Bold, Segoe UI" font-weight="700"><tspan x="0" y="0">WebTape | Grow</tspan></text>
    </g>
  </g>
</svg>
