<svg xmlns="http://www.w3.org/2000/svg" width="64.5" height="80" viewBox="0 0 64.5 80">
    <g id="Group_11" data-name="Group 11" transform="translate(-0.48)">
        <path id="Path_42" data-name="Path 42" d="M57.355,80H8.1A7.656,7.656,0,0,1,.48,72.375V7.625A7.656,7.656,0,0,1,8.105,0h49.25A7.656,7.656,0,0,1,64.98,7.625v64.75A7.656,7.656,0,0,1,57.355,80Z" transform="translate(0)" fill="#6762a6"/>
        <path id="Path_43" data-name="Path 43" d="M26.936,58.791V27.025S29,19.416,1.467,30.15C1.436,30.431,1.436.744,1.436.744L10.4.7v18.75s25.156-9.922,25.156,7.5V58.6H26.889Zm5.125-46.656H22.686C26.123,7.916,29.249.728,29.249.728h9.844S37.4,5.416,32.217,12.134ZM1.592,58.728V40.65l9.062,9.063L1.592,58.775Z" transform="translate(13.982 10.194)" fill="#fff"/>
    </g>
</svg>