
<svg xmlns="http://www.w3.org/2000/svg" width="80" height="80" viewBox="0 0 80 80">
    <rect id="Rectangle_1" data-name="Rectangle 1" width="80" height="80" fill="#f7df1e"/>
    <path id="Path_9" data-name="Path 9" d="M198.556,312.087c1.611,2.631,3.708,4.565,7.416,4.565,3.115,0,5.1-1.557,5.1-3.708,0-2.578-2.044-3.491-5.473-4.99l-1.879-.806c-5.425-2.311-9.029-5.206-9.029-11.327,0-5.638,4.3-9.93,11.01-9.93,4.78,0,8.216,1.663,10.692,6.019l-5.854,3.759c-1.289-2.311-2.679-3.222-4.838-3.222-2.2,0-3.6,1.4-3.6,3.222,0,2.255,1.4,3.168,4.622,4.565l1.879.805c6.387,2.739,9.994,5.531,9.994,11.81,0,6.768-5.317,10.476-12.457,10.476-6.982,0-11.492-3.327-13.7-7.688ZM172,312.738c1.181,2.1,2.255,3.867,4.838,3.867,2.47,0,4.028-.966,4.028-4.724V286.319h7.517v25.664c0,7.784-4.564,11.327-11.225,11.327-6.019,0-9.5-3.115-11.277-6.867Z" transform="translate(-144.816 -249.587)"/>
</svg>