<svg xmlns="http://www.w3.org/2000/svg" width="35.933" height="80" viewBox="0 0 35.933 80">
    <g id="Group_8" data-name="Group 8" transform="translate(-8.813 0)">
        <path id="Path_33" data-name="Path 33" d="M15.937.087,18.071,4.1a11.979,11.979,0,0,0,1.612,2,56.012,56.012,0,0,1,5.01,5.665,49.228,49.228,0,0,1,7.8,15.729,38.677,38.677,0,0,1,1.655,10.674,37.669,37.669,0,0,1-11,27.8,31.746,31.746,0,0,1-3.925,3.355c-.74,0-1.09-.567-1.395-1.09a8.972,8.972,0,0,1-1.09-3.137,15.158,15.158,0,0,1-.35-3.965v-.61C16.329,60.39,15.677.394,15.937.087Z" transform="translate(10.593 0.131)" fill="#599636"/>
        <path id="Path_34" data-name="Path 34" d="M26.529.086c-.087-.175-.175-.042-.262.042a4.028,4.028,0,0,1-.74,2.4,11.5,11.5,0,0,1-1.917,1.917,41.756,41.756,0,0,0-9.367,11.939A47.96,47.96,0,0,0,8.843,35.9,64.944,64.944,0,0,0,10.41,49.672,41.74,41.74,0,0,0,21.347,66.883,47.789,47.789,0,0,0,25.222,70.2c.392,0,.435-.35.525-.61a11.948,11.948,0,0,0,.392-1.7l.875-6.535Z" transform="translate(0)" fill="#6cac48"/>
        <path id="Path_35" data-name="Path 35" d="M18.819,36.032a5.965,5.965,0,0,1,1.09-2.657,2.75,2.75,0,0,1-1.22-1.132,8.087,8.087,0,0,1-.65-1.437,24.879,24.879,0,0,1-.915-5.62V24.053a5.432,5.432,0,0,0-.262,1.875,43.422,43.422,0,0,1-.785,5.882,5.234,5.234,0,0,1-.7,2.265.868.868,0,0,0,.042.3,26.016,26.016,0,0,1,1.132,7.059v.875c0,1.045-.042.825.825,1.175a3.821,3.821,0,0,1,1.09.435c.262,0,.3-.217.3-.392l-.13-1.437v-4.01a10.6,10.6,0,0,1,.175-2.05Z" transform="translate(9.845 36.076)" fill="#c2bfbf"/>
    </g>
</svg>