<svg xmlns="http://www.w3.org/2000/svg" width="72.596" height="80" viewBox="0 0 72.596 80">
    <g id="Group_9" data-name="Group 9" transform="translate(-0.603 -0.584)">
        <path id="Path_36" data-name="Path 36" d="M33.626,1.438a6.709,6.709,0,0,1,6.549,0q14.956,8.451,29.914,16.9a6.158,6.158,0,0,1,3.11,5.3v33.9a6.225,6.225,0,0,1-3.342,5.419Q54.95,71.358,40.05,79.77a6.519,6.519,0,0,1-6.622-.184q-4.469-2.591-8.944-5.171a5.266,5.266,0,0,1-1.725-1.242c.38-.512,1.06-.576,1.612-.8A20.875,20.875,0,0,0,27.9,70.726a.824.824,0,0,1,.919.055c2.548,1.461,5.073,2.964,7.629,4.411.545.315,1.1-.1,1.564-.363q14.629-8.268,29.267-16.516a.968.968,0,0,0,.532-.953q.01-16.773,0-33.547a1.048,1.048,0,0,0-.625-1.046Q52.333,14.4,37.485,6.024a1.032,1.032,0,0,0-1.166,0q-14.853,8.371-29.7,16.749a1.036,1.036,0,0,0-.628,1.041q0,16.773,0,33.549a.949.949,0,0,0,.539.941q3.964,2.248,7.932,4.48a6.129,6.129,0,0,0,4.96.664,3.762,3.762,0,0,0,2.436-3.535c.014-11.117-.007-22.235.01-33.35a.837.837,0,0,1,.912-.855c1.27-.009,2.541-.017,3.811,0a.879.879,0,0,1,.829,1.017c-.005,11.187.014,22.374-.009,33.561,0,2.981-1.221,6.226-3.979,7.684a12.255,12.255,0,0,1-10.953-.3c-2.906-1.45-5.679-3.162-8.533-4.715A6.21,6.21,0,0,1,.6,57.535v-33.9A6.169,6.169,0,0,1,3.82,18.268Q18.725,9.856,33.626,1.438Z" transform="translate(0 0)" fill="#8cc84b"/>
        <path id="Path_37" data-name="Path 37" d="M116.788,85.713c4.334-.279,8.973-.165,12.873,1.97a9.735,9.735,0,0,1,4.747,8.424.912.912,0,0,1-.989.671c-1.257,0-2.515.017-3.772-.009a.972.972,0,0,1-.91-.943,5.743,5.743,0,0,0-2.747-3.969c-2.319-1.161-5.008-1.1-7.536-1.078a10.23,10.23,0,0,0-5.4,1.343,3.418,3.418,0,0,0-1.137,3.819c.4.96,1.512,1.27,2.419,1.555,5.223,1.366,10.757,1.23,15.88,3.028a7.476,7.476,0,0,1,4.922,4.378,9.353,9.353,0,0,1-1.584,8.923,12.5,12.5,0,0,1-6.713,3.618,32.251,32.251,0,0,1-10.132.43c-3.169-.361-6.467-1.194-8.913-3.353a9.353,9.353,0,0,1-3.012-7.378.845.845,0,0,1,.925-.745c1.266-.01,2.532-.014,3.8,0a.887.887,0,0,1,.907.878,5.755,5.755,0,0,0,2.142,4.041c2.573,1.66,5.8,1.547,8.749,1.593,2.441-.108,5.182-.141,7.174-1.755a3.962,3.962,0,0,0,1.078-3.785c-.308-1.118-1.478-1.639-2.482-1.98-5.156-1.631-10.752-1.039-15.858-2.883a7.718,7.718,0,0,1-4.874-4.247,8.7,8.7,0,0,1,1.737-9.051c2.281-2.3,5.574-3.181,8.7-3.5Z" transform="translate(-74.494 -60.794)" fill="#8cc84b"/>
    </g>
</svg>