<svg xmlns="http://www.w3.org/2000/svg" width="82.051" height="80" viewBox="0 0 82.051 80">
    <g id="Surfaces">
        <g id="UI_UX_Surface">
        <g id="Outline_no_shadow">
            <path id="Path_50" data-name="Path 50" d="M14.53,0H67.521a14.518,14.518,0,0,1,14.53,14.53V65.47A14.518,14.518,0,0,1,67.521,80H14.53A14.518,14.518,0,0,1,0,65.47V14.53A14.518,14.518,0,0,1,14.53,0Z" fill="#470137"/>
        </g>
        </g>
    </g>
    <g id="Outlined_Mnemonics_Logos" transform="translate(11.952 17.533)">
        <g id="Xd">
        <path id="Path_51" data-name="Path 51" d="M66.154,60.513,55.9,77.436l10.94,17.949a.588.588,0,0,1,.068.41c-.034.137-.171.034-.376.068H58.7c-.547,0-.923-.034-1.162-.376-.718-1.436-1.47-2.838-2.188-4.274-.718-1.4-1.5-2.838-2.325-4.308s-1.641-2.94-2.462-4.444H50.5c-.718,1.47-1.5,2.94-2.291,4.41s-1.573,2.94-2.325,4.376c-.786,1.436-1.573,2.906-2.359,4.308-.137.342-.41.376-.786.376H35.213c-.137,0-.239.068-.239-.1a.475.475,0,0,1,.068-.376L45.675,78.017,35.316,60.479c-.1-.137-.137-.273-.068-.342A.4.4,0,0,1,35.59,60H43.35a2.018,2.018,0,0,1,.479.068.97.97,0,0,1,.342.308c.65,1.47,1.4,2.94,2.188,4.41.821,1.47,1.607,2.906,2.462,4.342.821,1.436,1.573,2.872,2.291,4.342h.068c.718-1.5,1.47-2.974,2.222-4.41s1.538-2.872,2.325-4.308,1.538-2.906,2.291-4.308a.581.581,0,0,1,.205-.342.652.652,0,0,1,.444-.068H65.88a.315.315,0,0,1,.376.239c.034.034-.034.171-.1.239Z" transform="translate(-34.961 -57.02)" fill="#ff61f6"/>
        <path id="Path_52" data-name="Path 52" d="M144.691,90.845a17,17,0,0,1-7.35-1.538,11.919,11.919,0,0,1-5.162-4.65,14.793,14.793,0,0,1-1.88-7.795,14.041,14.041,0,0,1,1.88-7.214,14.2,14.2,0,0,1,5.436-5.3,17.488,17.488,0,0,1,8.65-1.983,6.105,6.105,0,0,1,.718.034c.308.034.65.034,1.06.068v-10.8c0-.239.1-.376.342-.376h6.94a.307.307,0,0,1,.342.239V84.144c0,.615.034,1.3.068,2.051.068.718.1,1.4.137,1.983a.555.555,0,0,1-.342.547,26.11,26.11,0,0,1-5.573,1.641A30.156,30.156,0,0,1,144.691,90.845Zm3.35-6.838V68.965a8.743,8.743,0,0,0-.923-.171c-.376-.034-.752-.068-1.128-.068a8.428,8.428,0,0,0-3.863.889,7.664,7.664,0,0,0-2.906,2.53,7.579,7.579,0,0,0-1.128,4.342,9.527,9.527,0,0,0,.581,3.521,6.682,6.682,0,0,0,1.538,2.427,5.906,5.906,0,0,0,2.325,1.368,8.949,8.949,0,0,0,2.838.444c.513,0,.991-.034,1.436-.068A2.99,2.99,0,0,0,148.041,84.008Z" transform="translate(-97.703 -51.284)" fill="#ff61f6"/>
        </g>
    </g>
</svg>